<svg width="567" height="296" viewBox="0 0 567 296" fill="none" xmlns="http://www.w3.org/2000/svg">
<g clip-path="url(#clip0_1396_1376)">
<g opacity="0.06">
<path d="M514.45 148.68C513.075 149.964 511.765 150.751 510.544 151.907C511.471 150.597 512.459 149.5 513.624 148.191C518.346 143.264 523.914 138.987 530.002 135.575C528.617 136.277 527.166 136.88 525.82 137.677C524.471 138.469 523.092 139.227 521.757 140.057C524.226 138.364 526.92 136.667 529.335 135.315C530.716 134.441 532.078 133.723 533.423 133.01L535.426 131.926C536.096 131.569 536.803 131.289 537.504 130.966C536.766 131.194 536.011 131.372 535.291 131.632L533.127 132.422L530.943 133.243C530.212 133.529 529.513 133.905 528.785 134.254C524.001 136.503 519.46 139.552 515.299 142.963C510.592 146.824 506.313 151.281 502.796 156.313C499.256 161.273 496.408 166.98 494.351 172.352C493.088 175.524 492.494 178.616 491.519 181.618C489.932 183.755 488.311 185.809 486.596 187.555L486.712 187.41C484.992 190.28 482.987 192.687 480.709 194.288C478.425 195.908 475.897 196.784 473.051 196.955C470.177 197.136 466.895 196.572 463.416 195.803C459.92 195.033 456.206 194.01 452.062 193.345C448.237 192.745 443.856 192.459 439.315 193.585C438.192 193.838 437.089 194.302 435.984 194.682C434.91 195.143 433.872 195.644 432.864 196.254C430.824 197.439 429.007 199.04 427.427 200.766C425.871 202.526 424.662 204.452 423.643 206.386C422.72 208.256 421.943 210.195 421.319 212.186C420.113 216.016 419.445 219.688 418.825 223.222C417.834 229.074 416.986 234.508 415.595 239.332C414.224 244.163 412.294 248.179 409.652 250.7C407.035 253.271 403.739 254.59 399.308 254.925C394.908 255.268 389.775 254.609 384.394 253.732C378.984 252.876 373.311 251.74 367.064 251.262C363.944 251.032 360.671 250.968 357.24 251.329C353.822 251.689 350.216 252.509 346.763 254.059C343.88 255.364 341.125 257.089 338.789 259.274C336.432 261.441 334.467 263.984 332.945 266.609C329.877 271.91 328.49 277.32 327.491 282.322C326.5 287.362 325.961 292.117 325.264 296.602C324.569 301.046 323.769 305.264 322.419 308.702C319.762 315.629 315.194 318.926 307.841 319.242C304.169 319.42 299.929 318.828 295.484 318.048C291.031 317.265 286.295 316.254 281.194 315.589C276.096 314.959 270.451 314.622 264.444 315.939C261.465 316.599 258.432 317.714 255.684 319.331C252.926 320.922 250.43 322.984 248.362 325.26C244.2 329.855 241.738 334.99 239.806 339.747C237.884 344.54 236.486 349.131 234.971 353.353C233.471 357.567 231.864 361.442 229.865 364.444C227.865 367.464 225.569 369.459 222.707 370.704C219.827 371.924 216.156 372.38 211.975 372.346C207.794 372.326 203.194 371.851 198.215 371.589C192.919 371.319 186.954 371.242 180.656 373.01C179.874 373.243 179.092 373.446 178.316 373.718L176.004 374.696C174.431 375.292 173.048 376.256 171.607 377.106C170.872 377.52 170.22 378.031 169.582 378.559L167.654 380.133C166.446 381.233 165.369 382.43 164.274 383.607C160.207 388.489 157.664 393.71 155.494 398.577C153.341 403.467 151.57 408.137 149.597 412.337C147.636 416.537 145.471 420.237 142.891 423.013C140.334 425.838 137.016 427.928 133.196 429.601C129.376 431.27 125.001 432.391 120.372 433.251C115.742 434.121 110.862 434.739 105.81 435.427C102.213 435.932 98.49 436.425 94.342 437.367C90.315 438.271 86.376 439.599 82.584 441.227C78.797 442.859 75.16 444.833 71.867 447.277C68.587 449.719 65.563 452.451 63.241 455.704C62.308 456.908 61.606 458.25 60.91 459.414C60.297 460.664 59.821 461.899 59.387 463.015C59.035 464.185 58.807 465.304 58.604 466.308C58.368 467.302 58.434 468.282 58.397 469.117C58.333 470.449 58.5398 471.78 59.005 473.029C59.345 473.951 59.738 474.493 60.16 474.701C61.003 475.116 61.967 474.196 62.969 472.357L63.344 471.624L63.836 470.824C64.173 470.267 64.516 469.659 64.864 469.004C65.72 467.738 66.606 466.284 67.884 464.819C70.641 461.506 74.488 459.152 79.334 456.293C83.129 454.088 87.361 452.313 91.794 451.013C96.261 449.673 100.731 448.974 105.731 448.375C115.551 447.122 125.934 446.355 136.256 443.012C139.75 441.838 143.356 440.294 146.753 438.037C150.149 435.799 153.276 432.889 155.891 429.629C158.454 426.357 160.424 422.869 162.177 419.429C163.882 415.98 165.321 412.596 166.734 409.347C169.352 403.297 171.96 397.588 175.369 393.627C175.759 393.071 176.244 392.7 176.679 392.244C177.122 391.807 177.539 391.329 178.04 391.012L179.452 389.925C179.972 389.65 180.482 389.368 180.982 389.074C183.054 388.042 185.285 387.341 187.932 387.064C190.579 386.796 193.475 386.806 196.563 386.994L206.453 387.792C209.973 388.033 213.699 388.175 217.683 387.881C221.675 387.558 226.019 386.591 230.123 384.654C233.554 383.102 236.667 380.753 239.173 378.069C241.697 375.389 243.637 372.434 245.183 369.519C248.247 363.657 249.93 357.958 251.65 352.715C253.337 347.49 254.968 342.585 257.222 338.801C259.464 334.994 262.167 332.473 265.784 331.157C270.186 329.441 276.296 330.005 282.702 331.022C287.632 331.784 292.842 332.909 298.509 333.609C301.345 333.953 304.312 334.186 307.435 334.104C310.55 334.019 313.85 333.601 317.128 332.573C320.406 331.553 323.594 329.897 326.318 327.73C329.065 325.574 331.382 322.859 333.111 319.998C336.585 314.213 337.944 308.238 338.937 302.75C339.899 297.226 340.404 291.98 341.217 287.08C342.017 282.2 343.117 277.638 345.035 274.093C346.917 270.569 349.672 268.03 353.215 266.577C356.763 265.141 361.235 264.84 366.001 265.152C373.317 265.625 381.145 267.5 389.687 268.38C393.957 268.813 398.502 268.98 403.262 268.21C407.985 267.442 413.002 265.48 416.873 262.157C418.82 260.59 420.508 258.679 421.883 256.673C423.294 254.671 424.361 252.54 425.218 250.421C426.951 246.163 427.793 241.952 428.448 237.897C429.695 229.831 429.966 222.072 431.768 215.39C432.684 212.096 433.98 209.165 435.951 207.123C436.929 206.087 438.035 205.197 439.371 204.547C439.688 204.349 440.023 204.211 440.367 204.096L441.383 203.696C442.089 203.486 442.823 203.328 443.566 203.171C446.615 202.704 450.118 203.067 453.784 203.741C457.464 204.402 461.316 205.383 465.502 205.963C468.118 206.353 470.918 206.492 473.774 206.294C476.655 206.054 479.587 205.234 482.264 203.989C484.928 202.654 487.276 200.829 489.267 198.78C491.233 196.708 492.787 194.425 494.173 192.124C499.513 182.862 501.735 173.005 506.458 165.064C515.823 148.852 533.091 137.254 551.686 134.236C556.412 133.553 561.04 132.814 565.806 132.99C562.293 131.98 558.892 131.094 554.636 130.845C554.016 130.812 552.85 130.883 551.544 131.019L547.613 131.691C549.04 131.42 550.515 131.111 551.97 130.885C553.379 130.734 554.784 130.553 556.185 130.342C558.041 130.122 559.829 130.012 561.601 129.816C563.371 129.756 565.131 129.736 566.936 129.706C559.469 128.326 551.661 128.324 543.853 129.73C543.563 129.797 542.001 130.575 540.681 131.102C539.774 131.495 538.778 131.896 537.759 132.301L536.219 132.908L534.737 133.622C533.272 134.567 531.788 135.394 530.365 136.477C528.926 137.523 527.38 138.495 525.821 139.737C525.026 140.333 524.194 140.937 523.311 141.555C522.463 142.22 521.573 142.914 520.636 143.648L519.169 144.743L517.688 145.985C516.691 146.862 515.525 147.655 514.45 148.68ZM350.265 260.031C353.2 258.645 356.821 258.048 360.209 257.914C360.851 257.892 361.472 258.032 362.093 258.15C359.041 258.29 355.998 258.727 353.069 259.668C351.43 260.232 349.749 260.887 348.239 261.805C347.558 262.221 346.912 262.692 346.307 263.212L345.369 263.97L344.461 264.81C342.201 266.856 340.416 269.393 339.119 272.15C337.802 274.9 336.904 277.84 336.232 280.818C336.1 280.852 335.84 280.96 335.852 280.911C336.602 277.571 337.598 274.251 339.186 271.183C340.792 268.142 342.965 265.316 345.796 263.263C346.201 262.97 346.636 262.683 347.083 262.408L348.493 261.706C348.996 261.09 349.156 260.591 350.265 260.031ZM430.441 206.023C431.543 204.532 432.847 203.208 434.353 202.159C432.934 203.445 431.979 205.076 430.919 206.565C427.872 211.035 426.643 216.48 425.728 221.815C424.83 227.19 424.301 232.644 423.277 238.041C422.249 243.404 420.739 248.864 417.517 253.438C414.347 258.027 409.297 261.207 403.861 262.298C399.894 263.171 395.819 263.118 391.823 262.821C387.82 262.484 383.863 261.843 379.923 261.187C378.421 260.933 376.961 260.535 375.48 260.21C377 260.374 378.518 260.48 380.04 260.727C383.95 261.355 387.873 261.998 391.82 262.339C395.757 262.633 399.761 262.693 403.588 261.815C404.663 261.613 405.705 261.152 406.639 260.72C407.541 260.196 408.356 259.737 408.908 259.237C409.513 258.744 408.648 258.832 408.46 258.652C410.643 257.893 412.934 256.436 414.468 255.212C415.841 254.149 416.665 253.678 417.674 252.802C418.463 251.042 419.097 249.263 419.494 247.424C419.689 246.445 419.794 245.444 419.905 244.461L420.464 243.295C420.169 244.755 419.834 246.215 419.368 247.631C421.246 245.327 422.308 241.82 422.86 238.138C423.444 234.446 423.604 230.534 424.13 226.976L423.144 227.216L423.376 225.601L424.132 227.13C424.642 223.496 425.199 219.843 426.08 216.243C426.995 212.663 428.26 209.086 430.441 206.023ZM461.606 201.494C455.637 200.171 449.646 198.258 443.475 198.844C446.912 198.38 450.416 198.74 453.835 199.303C457.263 199.87 460.649 200.656 464.055 201.209C465.092 201.389 466.2 201.594 467.262 201.739C470.964 202.267 474.812 202.391 478.396 201.196C474.536 202.82 470.148 202.888 466.513 202.606C464.293 202.186 462.988 201.807 461.606 201.494ZM324.41 320.704C327.49 317.383 329.435 313.24 330.618 308.97C331.692 305.265 332.297 301.432 332.828 297.61L333.728 290.678C333.648 292.833 333.73 294.764 333.474 297.194C333.266 299.187 332.979 301.171 332.616 303.142C332.221 305.289 331.716 307.648 330.875 310.29C329.776 313.306 327.727 317.528 324.41 320.703V320.704ZM490.91 189.274C492.663 185.629 493.892 181.896 495.305 177.881C495.653 176.881 496.75 175.107 497.51 173.685C496.455 177.069 495.496 180.456 494.109 184.374C493.575 185.293 493.013 186.195 492.424 187.08C491.923 187.884 491.413 188.58 490.911 189.275L490.91 189.274ZM263.967 320.558C267.123 319.558 270.659 319.006 273.479 319.121C278.536 319.318 282.891 320.419 287.268 321.464C285.721 321.276 284.158 321.109 283.049 321.004C276.599 319.761 270.363 319.072 263.967 320.558ZM345.871 260.083C349.249 257.753 353.074 256.134 357.284 255.573C359.333 255.251 362.064 255.651 364.374 255.951C360.989 255.93 357.524 256.266 354.804 256.93C351.041 257.578 348.336 258.659 345.871 260.083ZM345.724 256.851C342.882 258.413 340.34 260.469 338.217 262.921C336.103 265.357 334.49 268.1 333.267 270.855C332.963 271.555 332.637 272.255 332.286 272.959L331.352 275.076C331.985 272.97 332.776 270.844 333.759 268.806C334.797 266.784 335.935 264.824 337.321 263.154C340.347 259.85 343.023 258.194 345.724 256.851ZM268.64 321.97C269.973 321.699 271.417 321.404 272.668 321.41C277.63 321.43 282.348 322.376 287.008 323.324C284.405 322.934 281.792 322.521 278.122 322.242C275.533 321.907 272.106 321.647 268.64 321.97ZM385.588 258.521C388.162 258.791 390.762 258.868 393.17 259.052C395.86 259.256 398.401 259.516 400.933 259.359C398.673 259.759 396.297 259.912 393.733 259.895C390.776 259.547 388.193 259.063 385.588 258.521ZM471.75 197.723L472.872 197.626L473.927 197.406C474.273 197.329 474.632 197.291 474.961 197.202C475.285 197.097 475.605 197.004 475.929 196.928C478.113 196.364 480.158 195.431 482.004 193.939C480.687 195.154 479.321 196.292 477.302 197.089C476.9 197.262 476.455 197.325 476.013 197.407C475.565 197.474 475.143 197.619 474.667 197.643C473.721 197.706 472.774 197.805 471.75 197.723ZM413.34 247.529C413.569 246.854 413.77 245.993 413.976 245.505C415.638 242.064 416.729 237.903 417.636 233.497C417.346 235.727 417.074 237.956 416.351 241.217C415.665 243.156 414.631 245.567 413.341 247.529H413.34ZM331.506 284.697C331.248 286.097 330.787 287.357 330.442 288.676C330.676 286.388 330.895 284.104 331.359 281.702C331.649 280.413 332.045 278.95 333.582 275.128C333.002 277.042 332.535 278.989 332.182 280.958L331.506 284.698V284.697ZM352.022 254.104C354.342 253.374 356.667 252.975 358.939 252.778C361.152 252.669 363.309 252.785 365.373 253.007C363.216 252.953 360.98 253.044 358.455 253.314C356.315 253.404 354.182 253.615 352.022 254.104ZM503.326 159.242C503.909 158.102 504.642 157.086 505.304 155.995C505.981 154.914 506.687 153.825 507.576 152.814C508.475 151.788 509.78 150.566 511.042 149.594C509.91 150.869 508.988 152.33 507.796 153.907C506.866 154.795 506.182 155.772 505.423 156.631C504.712 157.525 503.933 158.321 503.326 159.242ZM173.117 381.994C171.837 382.954 170.499 383.754 169.45 384.788C168.894 385.284 168.343 385.773 167.79 386.264C167.28 386.784 166.803 387.33 166.303 387.877C166.803 387.222 167.238 386.491 167.807 385.854C168.344 385.24 168.901 384.643 169.477 384.066C171.954 381.934 174.534 379.771 179.973 377.99L177.298 379.279C176.512 379.623 175.951 380.126 175.409 380.45C174.375 381.179 173.604 381.58 173.117 381.994ZM406.657 257.574C407.194 257.332 407.669 256.962 408.153 256.644C408.651 256.35 409.081 255.974 409.535 255.694C410.049 255.405 410.516 255.09 410.998 254.792L411.732 254.357L412.411 253.843L411.867 254.506L411.232 255.132L410.544 255.817L409.71 256.488C409.16 256.773 408.629 256.965 408.121 257.128C407.622 257.313 407.155 257.475 406.657 257.573V257.574ZM327.892 291.314C328.177 289.334 328.57 287.341 328.985 285.302C328.865 286.527 328.851 287.671 328.682 288.932C328.395 291.16 328.058 293.408 327.735 295.587L327.453 295.804C327.6 294.33 327.675 292.822 327.893 291.314H327.892ZM330.709 282.898C330.559 283.65 330.232 284.311 330.011 285.005C330.331 282.91 330.671 280.79 331.223 278.627C331.396 277.915 331.725 277.165 332.565 275.181C331.448 278.795 331.149 280.874 330.709 282.898ZM210.956 380.534C209.306 380.57 207.574 380.622 206.029 380.496C204.619 380.376 203.407 380.086 202.113 379.862C203.841 379.943 205.57 380.054 208.063 380.128C208.8 380.226 209.872 380.424 210.956 380.534ZM420.043 236.388C419.576 239.464 418.983 242.458 418.015 245.29C417.697 246.272 417.145 247.229 416.643 248.138C417.165 246.874 417.579 245.548 417.656 245.246C418.978 241.688 419.511 239.033 420.043 236.388ZM373.806 253.862C374.769 253.917 375.776 253.895 376.693 254.045C378.367 254.319 379.975 254.698 381.577 255.03L377.434 254.554C376.347 254.345 375.077 254.104 373.806 253.862ZM186.522 380.089C185.402 380.344 184.268 380.507 183.199 380.918L181.572 381.443C181.026 381.611 180.526 381.903 179.996 382.122C179.239 382.466 178.27 382.655 177.476 383.107C178.177 382.557 178.979 382.192 179.803 381.777L181.072 381.137C181.529 380.97 181.998 380.8 182.486 380.624C184.012 380.264 185.276 380.194 186.522 380.089ZM424.853 217.905C424.659 218.855 424.284 219.657 424.029 220.531C424.252 219.002 424.505 217.469 424.863 215.936C425.161 214.908 425.377 213.831 426.877 210.362C425.378 214.645 425.272 216.342 424.853 217.905ZM435.087 196.47C433.119 197.386 431.287 198.622 429.649 200.073C429.954 199.668 430.267 199.296 430.681 198.951C431.635 198.114 432.701 197.411 434.047 196.619C434.744 196.279 435.477 195.847 436.381 195.496C437.295 195.181 438.311 194.743 439.494 194.451C436.662 195.521 435.838 196.088 435.087 196.47ZM420.343 223.187C420.216 223.884 420.064 224.483 419.922 225.126C420.06 223.925 420.205 222.701 420.395 221.481C420.474 221.015 420.653 220.561 420.941 219.577L420.343 223.187ZM490.469 187.394C490.558 187.404 489.989 188.599 489.717 189.266C489.23 189.848 488.557 190.587 488.242 190.804C488.1 190.873 488.728 189.774 489.167 188.574C489.758 188.017 490.299 187.373 490.469 187.394ZM505.516 158.249C504.926 158.934 504.249 159.723 504.057 159.832C503.919 159.886 504.535 158.533 504.897 158.122C505.439 157.424 505.987 156.944 506.795 156.097C506.265 156.998 505.834 157.858 505.516 158.249ZM409.919 252.234C409.424 252.575 409.054 252.642 408.652 252.827C409.122 252.379 409.623 251.917 410.023 251.499C410.199 251.338 410.38 251.221 410.591 251.099C410.785 250.952 410.997 250.794 411.266 250.593C410.879 251.188 410.428 251.739 409.919 252.234ZM314.542 323.081C315.702 322.711 316.802 322.205 317.857 321.628C317.591 321.848 317.325 322.143 317.046 322.286C316.502 322.56 315.914 322.734 315.337 322.964C314.736 323.14 314.117 323.316 313.452 323.476C313.894 323.341 314.201 323.184 314.542 323.081ZM334.448 275.609L333.484 278.343C333.746 277.353 333.942 276.349 334.303 275.366C334.626 274.424 335.006 273.49 335.954 271.583C335.077 273.613 334.793 274.638 334.448 275.609ZM458.281 197.521C458.995 197.514 459.681 197.503 460.456 197.518C460.486 197.523 461.776 197.898 461.73 197.911C461.45 198.024 460.972 198.088 460.508 198.168C459.364 197.837 458.823 197.678 458.281 197.521ZM303.009 323.756C302.34 323.633 302.057 323.454 301.614 323.299C302.209 323.321 302.906 323.325 303.374 323.376C304.098 323.442 304.684 323.621 306.014 323.778C304.456 323.838 303.456 323.809 303.009 323.756ZM398.19 257.72C399.026 257.6 399.895 257.529 400.69 257.392C401.061 257.342 401.432 257.313 401.805 257.292L402.883 257.148L401.826 257.454L400.686 257.691C399.769 257.766 398.959 257.702 398.19 257.721V257.72ZM373.817 257.015C373.373 256.935 372.95 256.766 372.573 256.519C372.525 256.486 373.759 256.529 374.223 256.619C375.025 256.768 375.702 256.963 376.958 257.29C375.473 257.154 374.51 257.144 373.817 257.015ZM321.26 315.17C321.494 314.767 321.709 314.386 321.978 313.983C322.148 313.682 322.408 313.363 322.634 313.053C322.374 313.604 322.147 314.196 321.831 314.713L321.26 315.17ZM439.788 93.794C438.373 94.719 437.078 95.194 435.826 96.038C436.824 94.994 437.847 94.152 439.07 93.165C443.925 89.439 449.35 86.279 455.105 83.815C453.759 84.197 452.472 84.745 451.161 85.251L449.197 86.02C448.546 86.287 447.919 86.61 447.279 86.902C447.869 86.584 448.461 86.243 449.074 85.941C449.695 85.655 450.319 85.371 450.936 85.086C452.179 84.538 453.357 83.901 454.513 83.453C455.857 82.883 457.116 82.303 458.361 81.737L462.181 80.264L458.131 81.119C456.801 81.488 455.461 81.885 454.086 82.336C449.642 83.94 445.188 85.958 441.096 88.512C431.74 94.096 423.53 101.826 417.614 111.052C415.85 113.748 414.967 116.529 413.77 119.165C412.062 120.925 410.355 122.611 408.627 124.075L408.746 123.955C407.862 125.228 406.92 126.347 405.973 127.424C404.993 128.418 404.024 129.407 402.976 130.115C402.476 130.537 401.92 130.783 401.406 131.138C400.849 131.367 400.341 131.718 399.766 131.878C398.677 132.353 397.509 132.551 396.171 132.733C393.514 133.076 390.306 132.89 386.695 132.913C384.874 132.933 382.935 133.009 380.866 133.303C378.79 133.615 376.569 134.202 374.426 135.207C373.935 135.457 373.424 135.679 372.956 135.966L371.578 136.879C371.128 137.197 370.658 137.493 370.232 137.841L369.02 138.971C368.63 139.36 368.203 139.731 367.857 140.144L366.86 141.416C366.159 142.266 365.65 143.153 365.142 144.049C363.142 147.64 362.172 151.199 361.378 154.48C360.603 157.772 360.041 160.867 359.354 163.713C358.682 166.559 357.864 169.131 356.757 171.182C354.949 174.561 352.263 176.678 348.66 178.056C345.055 179.453 340.64 180.146 335.783 180.839C331.033 181.526 325.914 182.039 320.511 183.094C315.139 184.16 309.306 185.78 303.794 189.175C298.262 192.567 294.069 197.393 290.891 202.119C287.69 206.887 285.313 211.677 283.019 216.139C281.104 219.881 279.258 223.424 277.246 226.563C275.239 229.703 273.034 232.338 270.569 234.355C268.107 236.364 265.181 237.93 261.776 239.202C258.395 240.482 254.54 241.387 250.533 242.305C246.502 243.228 242.276 244.042 237.826 245.262C233.399 246.484 228.742 248.066 224.205 250.657C221.929 251.911 219.748 253.549 217.705 255.33C216.727 256.289 215.761 257.263 214.813 258.248C213.991 259.308 213.049 260.372 212.363 261.462C209.393 265.824 207.538 270.212 205.874 274.129C204.214 278.066 202.703 281.657 200.944 284.339C199.206 287.119 197.339 288.646 195.09 289.676C192.803 290.642 189.647 290.942 185.924 290.81C182.164 290.665 177.937 290.126 173.218 289.95C168.558 289.762 162.993 290.082 157.504 292.315C154.79 293.423 152.27 295.003 150.111 296.781C147.931 298.563 146.157 300.546 144.583 302.516C141.447 306.486 139.221 310.452 137.08 314.054C134.957 317.701 133.009 320.714 130.617 323.76C120.432 336.741 105.553 346.64 90.804 357.337L46.66 389.21C36.232 396.786 24.928 405.211 16.205 412.55C2.67099 423.937 4.48499 428.592 18.22 422.208C22.025 420.44 26.212 418.744 30.888 415.661C45.38 406.111 60.268 394.959 75.044 385.43C85.112 378.936 95.883 371.315 106.357 364.067C116.22 357.218 126.461 350.189 135.656 341.145C140.22 336.631 144.537 331.572 148.121 325.99C151.616 320.53 154.338 315.436 157.417 311.784C158.673 310.287 159.942 309.074 161.231 308.176C162.52 307.249 163.818 306.708 165.401 306.284C166.151 306.035 167.068 305.939 167.948 305.784C168.918 305.718 169.835 305.586 170.915 305.6C172.973 305.532 175.302 305.68 177.739 305.822C182.627 306.104 188.229 306.686 194.634 305.575C197.833 305.002 201.178 303.773 204.197 301.977C207.223 300.151 209.716 297.663 211.692 295.122C214.113 291.962 215.812 288.706 217.252 285.646C218.686 282.581 219.863 279.654 221.012 277C222.788 272.947 224.546 269.486 226.952 267.146C229.316 264.654 232.484 262.747 236.274 261.26C240.057 259.766 244.366 258.693 248.9 257.644C253.442 256.584 258.231 255.586 263.167 254.019C268.076 252.458 273.205 250.299 277.826 246.876C282.471 243.474 286.078 239.079 288.886 234.706C294.49 225.91 297.761 216.95 302.449 209.888C304.235 207.254 306.124 204.791 308.349 202.962C308.859 202.425 309.493 202.105 310.051 201.655L310.911 201.018L311.826 200.469C313.073 199.763 314.392 199.115 315.833 198.589C321.57 196.406 328.453 195.569 335.585 194.389C339.12 193.799 342.77 193.136 346.511 192.076C350.237 191.012 354.105 189.506 357.687 187.088C359.487 185.848 361.141 184.408 362.617 182.796C364.063 181.164 365.303 179.36 366.31 177.426C368.31 173.61 369.274 169.751 370.01 166.144C370.736 162.527 371.212 159.076 371.896 155.892C372.566 152.712 373.469 149.812 374.923 147.698C375.299 147.19 375.632 146.625 376.099 146.235L376.734 145.565L377.487 145.025C378.445 144.225 379.578 143.75 380.89 143.368C383.507 142.603 386.774 142.551 390.34 142.491C392.588 142.443 394.981 142.381 397.5 141.998C400.01 141.642 402.688 140.822 405.034 139.558C407.402 138.308 409.483 136.661 411.26 134.867C413.032 133.063 414.514 131.121 415.857 129.166C418.54 125.246 420.627 121.243 422.843 117.525C423.92 115.641 425.162 113.997 426.312 112.219L428.269 109.739L429.249 108.498L430.319 107.333C441.549 94.676 457.907 86.636 474.762 84.914C476.914 84.761 479.024 84.456 481.146 84.394C483.27 84.196 485.386 84.259 487.533 84.307C485.963 83.816 484.433 83.207 482.811 82.797C481.189 82.434 479.483 81.92 477.581 81.709C476.47 81.578 473.393 81.75 471.237 82.055C473.816 81.6 476.613 81.568 478.995 81.309C480.677 81.215 482.285 81.126 483.875 81.036L488.667 81.05C482.013 79.556 475.051 79.085 467.959 79.71C467.693 79.74 466.265 80.433 465.04 80.794C463.329 81.233 461.365 81.943 459.517 82.532C456.726 83.944 454.089 85.445 450.999 87.223L449.803 87.87C449.405 88.11 449 88.356 448.584 88.606C447.75 89.101 446.871 89.602 445.934 90.112C444.995 90.622 444.062 91.252 443.027 91.838C441.995 92.44 440.897 93.054 439.787 93.793L439.788 93.794ZM289.448 218.676C290.598 216.134 292.064 213.356 293.547 210.732C293.837 210.242 294.273 209.861 294.639 209.433C293.337 211.836 292.226 214.299 291.073 216.775L289.059 221.033C288.486 222.345 287.997 223.664 287.299 225.01C284.784 229.905 281.879 234.737 277.961 238.775C277.836 238.733 277.577 238.681 277.608 238.646C281.92 234.167 285.056 228.769 287.814 223.243C288.212 222.448 288.74 221.641 289.201 220.836C289.263 220.13 289.006 219.65 289.448 218.676ZM366.486 157.436C366.842 155.84 367.275 154.261 367.781 152.706C367.502 154.382 367.484 156.082 367.141 157.729C366.154 162.519 365.373 167.422 363.581 172.076C362.62 174.366 361.445 176.608 359.828 178.525C358.228 180.45 356.275 182.073 354.134 183.35C349.826 185.92 344.932 187.162 340.099 188.05C335.244 188.935 330.352 189.462 325.517 190.273C318.512 191.453 311.343 193.252 305.725 197.683C305.157 198.052 304.643 198.486 304.114 198.906L302.51 200.16L303.93 198.675C304.403 198.174 304.883 197.674 305.466 197.289L307.636 195.712C308.409 195.262 309.165 194.778 309.973 194.391C311.56 193.56 313.224 192.889 314.916 192.315C318.3 191.153 321.802 190.423 325.284 189.777C327.226 189.421 329.246 188.729 330.54 188.237C331.229 187.976 330.43 187.768 330.303 187.537C332.555 187.469 335.098 187.32 336.933 187.339C338.555 187.357 339.396 187.599 340.593 187.715C342.203 187.118 343.789 186.457 345.347 185.734C346.146 185.289 346.935 184.85 347.689 184.364C348.072 184.309 348.455 184.248 348.83 184.167C347.64 184.761 346.394 185.271 345.128 185.756C347.808 185.886 350.971 184.918 353.8 183.096C356.659 181.293 358.984 178.619 360.69 175.976L359.739 175.733L360.436 174.554C360.514 175.054 360.583 175.57 360.642 176.102C362.429 173.397 363.542 170.278 364.38 167.11C365.211 163.934 365.785 160.675 366.486 157.436ZM386.276 138.86C383.544 138.911 380.769 139.1 378.196 140.054C375.608 140.949 373.348 142.697 371.659 144.854C373.455 142.338 376.063 140.338 379.062 139.351C382.067 138.349 385.259 138.171 388.372 138.063C389.324 138.033 390.344 138.053 391.316 138.063C394.696 138.071 398.131 137.998 401.303 136.809C397.911 138.435 394.003 138.768 390.761 139.027C388.75 138.939 387.542 138.847 386.277 138.86H386.276ZM243.042 252.34C246.897 251.364 250.742 250.393 254.609 249.415C257.956 248.541 261.302 247.562 264.538 246.316C266.458 245.506 268.393 244.702 270.184 243.631C268.637 244.796 267.173 245.745 265.171 246.705C262.058 248.011 258.497 249.094 253.731 250.283L243.042 252.34ZM412.78 126.167C414.584 123.001 416.01 119.757 417.804 116.332C418.259 115.488 419.489 114.049 420.47 112.949C418.943 115.779 417.707 118.704 416.105 122.076C415.04 123.474 413.931 124.839 412.78 126.167ZM204.042 287.579C205.272 285.622 206.242 283.172 207.252 281.194C209.051 277.625 210.773 274.092 212.802 270.454C212.282 271.792 211.769 273.126 211.447 274.06C208.89 279.353 206.84 283.959 204.042 287.579ZM286.23 220.691C287.5 217.703 288.56 214.722 290.167 211.555C290.916 210.025 292.484 208.208 293.752 206.567C293.007 207.877 292.324 209.205 291.669 210.457L289.973 213.964C288.44 216.717 287.336 218.704 286.23 220.691ZM284.166 218.396C282.153 222.471 280.161 226.363 277.779 229.747C277.194 230.639 276.339 231.305 275.634 232.083C277.471 229.736 279.037 226.973 280.386 224.507C281.69 222.498 282.951 220.46 284.166 218.396ZM207.742 285.952C208.223 284.909 208.567 283.706 209.048 282.762C210.914 278.985 212.551 275.042 214.523 271.194C213.565 273.382 212.693 275.592 211.514 278.629C210.537 280.729 209.258 283.439 207.742 285.952ZM307.885 192.046C310.116 190.695 312.5 189.494 314.865 188.778C317.512 187.974 320.105 187.658 322.675 187.331C320.389 187.885 318.092 188.517 315.693 189.369C312.823 190.056 310.318 190.903 307.885 192.046ZM395.025 133.596C396.419 133.363 397.711 132.995 398.796 132.639C400.69 132.065 402.492 131.209 404.194 129.826C402.999 130.961 401.744 131.946 400.029 132.775C398.588 133.291 396.932 133.522 395.026 133.597L395.025 133.596ZM341.524 180.956C342.232 180.712 343.027 180.28 343.534 180.183C347.184 179.401 350.354 178.303 352.859 176.549C351.691 177.554 350.433 178.514 347.925 179.675C346.29 180.173 343.981 180.645 341.524 180.956ZM272.431 238.511C271.494 239.118 270.511 239.508 269.551 239.961C270.989 238.865 272.368 237.807 273.668 236.524C274.028 236.19 274.481 235.92 275.061 235.372L276.13 234.446C276.644 234.027 277.122 233.567 277.56 233.07C277 233.903 276.42 234.506 275.938 235.08C275.438 235.632 275.054 236.186 274.618 236.559C273.768 237.337 273.133 237.977 272.431 238.511ZM286.211 213.859C286.952 212.238 287.726 210.538 288.607 208.93C289.043 208.139 289.565 207.362 290.063 206.6C290.566 205.823 291.095 205.063 291.65 204.322C291.13 205.157 290.678 205.995 290.228 206.857C289.781 207.717 289.272 208.609 288.838 209.535C287.918 211.015 287.036 212.449 286.212 213.859H286.211ZM428.174 101.224C428.922 100.362 429.689 99.542 430.456 98.694C431.22 97.844 432.019 97.003 432.958 96.244C433.898 95.465 435.286 94.65 436.526 93.952C435.374 94.96 434.316 96.082 433.039 97.313C431.187 98.671 429.699 99.966 428.174 101.224ZM119.778 341.7C117.738 343.219 115.821 344.397 113.826 345.672C114.822 344.821 115.871 343.869 116.801 343.144C118.837 341.593 120.816 340.159 124.211 337.36C121.78 339.858 120.589 341.097 119.778 341.7ZM328.838 186.008C330.057 185.716 331.312 185.324 332.462 185.176C333.728 185.013 334.896 185.07 336.099 185.022C334.943 185.309 333.789 185.596 332.264 185.973L328.837 186.008H328.838ZM266.493 239.162C267.153 238.806 267.828 238.479 268.513 238.159L270.387 237.019C269.709 237.554 269.176 238.215 268.34 238.675C267.6 239.08 266.847 239.489 266.088 239.904L263.624 240.941L263.344 240.791L264.939 239.973C265.478 239.713 266.005 239.451 266.493 239.162ZM272.679 236.849C272.249 237.216 271.751 237.422 271.227 237.609C271.892 237.198 272.391 236.58 272.982 236.083L273.845 235.304C274.121 235.028 274.379 234.717 274.651 234.429C274.991 234.015 275.537 233.778 276.661 232.686C275.837 233.787 275.071 234.497 274.476 235.211C273.856 235.893 273.244 236.339 272.679 236.849ZM143.703 318.946C143.012 320.252 142.326 321.647 141.553 322.815C140.826 323.867 140.026 324.67 139.261 325.572C140.1 324.256 140.981 322.968 142.104 321.029C142.512 320.495 143.107 319.722 143.703 318.946ZM353.057 179.931C350.984 181.345 348.621 182.48 346.034 183.304C345.144 183.588 344.13 183.73 343.156 183.898C344.065 183.618 344.967 183.315 345.86 182.988C349.164 182.026 351.192 181.068 353.057 179.931ZM296.43 197.893C297.024 197.118 297.522 196.236 298.234 195.573C299.571 194.39 300.849 193.213 302.391 192.273C301.298 193.077 300.364 194.016 299.127 195.271C298.218 195.991 297.342 196.949 296.43 197.893ZM130.265 336.475C128.858 338.025 127.428 339.535 125.891 341C125.326 341.525 124.563 341.998 123.893 342.492C125.015 341.335 126.143 340.191 127.396 338.802C128.518 337.947 129.379 337.202 130.265 336.475ZM363.127 168.482C362.905 169.294 362.456 169.912 362.098 170.597C362.528 169.368 362.802 168.073 363.161 166.795C363.355 165.9 363.696 165.049 364.483 161.925C363.847 165.742 363.527 167.15 363.127 168.482ZM364.472 148.396L363.564 150.872L362.806 153.282C362.854 152.895 362.853 152.515 362.958 152.118L363.341 150.684C363.513 150.176 363.693 149.638 363.893 149.043C364.081 148.451 364.322 147.795 364.67 147.041C365.005 146.292 365.32 145.457 365.9 144.508C365.29 145.723 365.132 146.528 364.913 147.116C364.713 147.693 364.588 148.058 364.472 148.396ZM358.177 171.671C357.974 172.145 357.675 172.467 357.407 172.829C357.841 172.137 358.111 171.269 358.486 170.487L359.189 169.215C358.811 170.385 358.48 171.03 358.177 171.671ZM412.402 124.361C412.487 124.383 411.917 125.447 411.614 126.015C411.121 126.496 410.486 127.145 410.161 127.297C410.038 127.362 410.632 126.37 411.105 125.314C411.711 124.882 412.234 124.314 412.402 124.361ZM430.374 100.836C429.759 101.36 428.971 101.881 428.781 101.941C428.636 101.95 429.441 100.897 429.813 100.578C430.405 100.054 430.976 99.732 431.837 99.127C431.231 99.843 430.721 100.544 430.374 100.836ZM334.876 182.272C334.136 182.325 333.718 182.224 333.149 182.184C333.959 182.027 334.795 181.812 335.529 181.722C336.123 181.642 336.603 181.718 337.413 181.722C336.298 181.978 335.377 182.239 334.876 182.272ZM233.074 251.962L234.921 251.259L236.783 250.677C236.453 250.856 236.116 251.105 235.797 251.199C234.55 251.536 233.324 252.009 231.93 252.458C232.381 252.26 232.715 252.099 233.074 251.962ZM278.229 233.797C277.756 234.428 277.177 234.908 276.625 235.426C277.159 234.826 277.666 234.208 278.152 233.546C278.614 232.907 279.22 232.408 280.202 231.052C279.277 232.527 278.72 233.139 278.229 233.797ZM382.224 135.993C382.888 135.733 383.531 135.523 384.264 135.315C384.297 135.295 385.601 135.328 385.564 135.356C385.324 135.539 384.901 135.706 384.49 135.921C383.341 135.927 382.787 135.946 382.224 135.993ZM222.074 257.695C221.483 258.095 221.106 258.137 220.695 258.417C221.119 257.931 221.697 257.471 222.105 257.161C222.899 256.619 223.726 256.126 224.581 255.685C223.229 256.69 222.49 257.447 222.074 257.695ZM319.594 186.055C320.493 185.797 321.401 185.573 322.316 185.384C323.141 185.242 323.976 185.166 324.796 185.083L322.328 185.684C321.295 185.819 320.451 185.914 319.593 186.055H319.594ZM299.066 199.619C298.767 199.931 298.404 200.174 298.002 200.331C297.949 200.353 298.632 199.401 298.952 199.071C299.501 198.511 299.978 198.051 301.017 197.306C299.983 198.336 299.552 199.149 299.066 199.619ZM243.749 245.986C244.288 245.818 244.798 245.636 245.375 245.487C245.768 245.39 246.248 245.342 246.69 245.272L244.634 245.98L243.749 245.986ZM-8.02601 315.065C-6.91201 313.671 -5.88001 312.691 -4.83901 311.497C-5.57501 312.806 -6.23501 314.034 -7.13201 315.411C-8.93601 318.09 -10.915 320.757 -13.179 323.157C-15.392 325.615 -17.856 327.865 -20.486 329.94C-19.216 329.15 -18.061 328.202 -16.834 327.33C-15.684 326.376 -14.5 325.442 -13.391 324.427C-14.383 325.459 -15.508 326.421 -16.561 327.419L-19.793 330.116C-21.046 331.058 -22.148 332.066 -23.376 332.886L-25.174 334.172C-25.78 334.593 -26.434 334.955 -27.078 335.351C-24.261 334.206 -21.686 332.814 -19.088 331.08C-14.893 328.175 -11.049 324.629 -7.70001 320.689C-6.78301 319.561 -5.84001 318.389 -4.98701 317.257C-4.16901 316.127 -3.32301 314.998 -2.53701 313.868L2.16999 307.121C5.25999 302.663 8.32899 298.331 11.67 294.431C13.612 292.11 15.19 289.789 17.165 287.677C18.279 287.175 19.338 286.614 20.465 286.253L22.105 285.658C22.659 285.494 23.22 285.367 23.763 285.221L23.603 285.276C26.302 283.822 29.111 282.803 32.098 282.299C35.116 281.776 38.415 281.669 41.88 281.659C45.35 281.644 48.999 281.746 52.874 281.542C56.734 281.327 60.904 280.807 65.09 279.232C66.065 278.912 67.014 278.436 67.96 277.959C68.925 277.524 69.813 276.918 70.71 276.329C71.634 275.775 72.43 275.052 73.241 274.349L74.45 273.282C74.833 272.912 75.158 272.506 75.513 272.115C78.363 268.984 80.326 265.428 81.784 262.046C84.734 255.245 86.344 248.741 88.858 243.546C89.884 241.396 91.084 239.591 92.368 238.123C93.731 236.781 95.086 235.652 96.685 234.973C99.82 233.563 103.931 233.326 108.875 233.556C113.685 233.745 119.018 234.491 125.004 234.585C128.014 234.604 131.22 234.456 134.604 233.76C137.974 233.037 141.553 231.754 144.686 229.601C147.781 227.508 150.415 224.804 152.428 221.657C154.354 218.642 155.64 215.535 156.606 212.565C158.513 206.603 159.286 201.083 160.326 196.079C161.166 191.909 162.146 188.065 163.589 185.26C165.027 182.446 166.747 180.868 169.089 179.868C170.262 179.405 171.687 179.121 173.34 178.976C174.977 178.82 176.928 178.903 178.977 179.013C183.119 179.234 187.87 179.903 193.395 179.544C194.761 179.475 196.204 179.266 197.646 179.022C199.101 178.698 200.602 178.378 202.023 177.841C204.893 176.838 207.606 175.361 209.965 173.617C214.717 170.095 218.026 165.78 220.762 161.705C223.487 157.598 225.695 153.587 227.92 149.897C230.127 146.205 232.348 142.848 234.77 140.21C235.98 138.892 237.229 137.765 238.526 136.85C239.176 136.39 239.831 135.99 240.522 135.637C241.256 135.347 241.914 134.964 242.68 134.693C245.707 133.579 249.417 133.1 253.5 132.953C257.59 132.796 262.026 132.959 266.806 132.871C271.572 132.761 276.808 132.454 282.307 130.701C283.678 130.226 285.047 129.811 286.39 129.086L288.4 128.079C289.066 127.737 289.676 127.259 290.312 126.847C292.892 125.234 295.144 123.037 296.967 120.788C300.629 116.218 302.752 111.368 304.506 106.905C306.242 102.422 307.589 98.169 309.125 94.445C310.637 90.717 312.391 87.619 314.338 85.813C315.381 84.836 316.453 84.126 317.755 83.675C318.971 83.225 320.449 83.029 322.151 82.98C323.885 82.979 325.894 83.215 328.018 83.543L335.021 84.813C337.58 85.226 340.231 85.68 343.285 85.756C346.312 85.801 349.639 85.63 353.051 84.498C353.896 84.284 354.717 83.855 355.541 83.521L356.768 82.969C357.168 82.766 357.541 82.516 357.925 82.285C358.685 81.81 359.45 81.337 360.179 80.822C360.863 80.2529 361.536 79.6718 362.199 79.079C364.719 76.656 366.719 73.839 368.028 71.175C369.422 68.491 370.417 65.879 371.247 63.445C372.107 60.967 372.794 58.691 373.521 56.505C374.941 52.222 376.459 48.479 378.411 46.198C380.227 43.875 382.948 42.249 386.534 41.086C390.101 39.94 394.31 39.376 398.755 39.085C405.245 38.619 413.026 38.605 421.153 36.125C423.17 35.479 425.186 34.719 427.123 33.712C427.61 33.486 428.081 33.194 428.555 32.932C429.029 32.659 429.485 32.412 429.995 32.054L431.463 31.044L432.803 29.942C436.287 26.954 438.661 23.329 440.22 19.57C442.597 13.676 441.979 7.95799 440.237 4.65999C438.519 1.28999 436.44 0.313994 435.574 0.456994C434.604 0.626994 434.534 1.95099 434.617 3.99199C434.664 6.05199 434.612 8.95099 433.19 12.209C431.614 15.805 428.587 18.891 424.741 21.477L423.586 22.147L422.276 22.783L420.91 23.351L419.496 23.851C417.578 24.471 415.533 24.911 413.399 25.227C409.125 25.862 404.524 25.987 399.705 26.188C394.842 26.385 389.705 26.775 384.537 28.04C379.402 29.29 373.999 31.567 369.644 35.626C366.703 38.396 364.476 41.829 362.869 45.213C361.239 48.611 360.087 52.004 358.992 55.193C357.907 58.38 356.866 61.376 355.612 63.858C354.356 66.35 352.942 68.193 351.322 69.278C349.75 70.346 348.077 70.878 345.879 71.004C343.689 71.129 341.042 70.774 338.149 70.213C335.244 69.659 332.092 68.908 328.577 68.358C325.075 67.828 321.104 67.461 316.757 68.186C316.217 68.283 315.681 68.346 315.137 68.483L313.502 68.955C312.961 69.124 312.409 69.275 311.879 69.473L310.316 70.137C308.259 71.099 306.286 72.334 304.567 73.792C302.921 75.2109 301.431 76.8016 300.122 78.537C298.877 80.204 297.852 81.898 296.941 83.576C295.157 86.931 293.875 90.188 292.713 93.277C291.557 96.356 290.531 99.307 289.435 101.989C287.651 106.46 285.625 110.176 283.202 112.493C281.99 113.632 280.542 114.487 278.975 115.29C277.252 115.924 275.435 116.558 273.235 116.845C268.934 117.556 263.889 117.535 258.437 117.615C252.995 117.732 247.049 117.88 240.751 119.562C238.811 120.188 236.863 120.748 234.948 121.712C233.003 122.527 231.171 123.669 229.454 124.867C226.068 127.332 223.259 130.259 221.006 133.234C217.536 137.789 214.973 142.417 212.49 146.711C210.024 151.001 207.648 155.022 204.983 158.167C202.313 161.341 199.486 163.43 196.183 164.349C192.963 165.353 188.544 165.157 183.626 164.816C181.138 164.644 178.472 164.454 175.604 164.476C172.741 164.509 169.632 164.733 166.407 165.655C163.181 166.589 160.009 168.223 157.378 170.44C154.701 172.659 152.688 175.468 151.223 178.243C148.319 183.869 147.286 189.339 146.306 194.369C145.368 199.405 144.627 204.171 143.334 208.313C142.365 211.468 141.036 214.153 139.3 216.109C137.529 218.04 135.36 219.36 132.603 220.086C129.855 220.835 126.531 220.962 123.012 220.867C119.484 220.773 115.718 220.436 111.77 220.293C107.876 220.158 103.718 220.173 99.354 220.997C95.024 221.814 90.387 223.71 86.842 226.885C83.221 229.971 80.778 233.898 79.065 237.659C77.337 241.449 76.198 245.179 75.108 248.736C72.985 255.783 70.902 262.451 66.656 266.526C64.582 268.59 61.925 269.967 58.85 270.818C55.776 271.678 52.308 271.969 48.693 272.105C44.137 272.285 39.335 272.207 34.316 272.785C29.309 273.259 24.031 274.897 19.536 277.449C14.993 280.003 11.106 283.387 7.72599 287.016C4.33899 290.656 1.41399 294.556 -1.34801 298.468L-9.36201 310.136L-11.376 312.961L-13.416 315.595L-15.614 318.107L-17.958 320.489C-21.174 323.569 -24.742 326.293 -28.57 328.422C-32.388 330.547 -36.518 332.04 -40.622 332.385C-44.757 332.737 -48.817 332.265 -52.463 330.141C-50.311 332.591 -47.568 334.417 -43.643 335.421C-42.499 335.819 -39.213 335.558 -36.945 335.146C-38.309 335.393 -39.719 335.677 -41.13 335.678C-42.535 335.829 -43.904 335.665 -45.183 335.618C-48.743 335.292 -51.978 334.268 -55.027 332.488C-52.197 334.88 -48.691 336.64 -44.874 337.384C-41.063 338.154 -37.034 337.966 -33.226 337.055C-33.086 337.013 -32.614 336.83 -32.064 336.494C-31.512 336.164 -30.842 335.771 -30.215 335.469C-29.33 335.081 -28.427 334.561 -27.493 334.052L-26.083 333.287L-24.748 332.429C-22.118 330.353 -19.872 328.009 -17.218 325.326C-14.579 322.61 -11.588 319.459 -8.02601 315.065ZM153.448 195.41C152.966 198.521 152.382 201.615 151.698 204.688C151.563 205.275 151.248 205.798 151.018 206.348C151.573 203.508 151.965 200.678 152.392 197.823C152.634 196.211 152.918 194.546 153.225 192.915C153.434 191.415 153.635 189.943 154.021 188.382C154.766 185.561 155.709 182.74 157.198 180.162C157.93 178.867 158.825 177.664 159.822 176.545C160.865 175.474 161.982 174.445 163.27 173.663C163.387 173.731 163.639 173.836 163.598 173.863C160.796 175.613 158.607 178.2 157.107 181.092C155.579 183.986 154.652 187.144 153.9 190.32C153.696 191.236 153.374 192.202 153.134 193.155C153.244 193.887 153.623 194.297 153.448 195.41ZM77.336 258.105C77.032 258.922 76.651 259.705 76.265 260.48C75.889 261.26 75.506 262.036 75.048 262.776C75.413 261.956 75.646 261.083 75.901 260.227C76.171 259.377 76.44 258.534 76.745 257.697C78.641 252.881 79.995 247.843 81.949 242.983C82.871 240.534 84.096 238.194 85.462 235.943L86.632 234.343C86.83 234.079 87.017 233.807 87.223 233.549L87.907 232.828C88.366 232.35 88.812 231.859 89.283 231.394L90.847 230.164C92.934 228.524 95.412 227.418 97.961 226.747C100.516 226.062 103.151 225.78 105.769 225.722C111.015 225.595 116.203 226.236 121.382 226.502C125.158 226.686 128.968 226.713 132.653 225.968C136.33 225.246 139.826 223.605 142.543 221.038C143.565 220.056 144.615 219.091 145.487 217.944C144.75 219.189 143.9 220.376 142.84 221.408C140.084 224.034 136.502 225.704 132.788 226.433C129.062 227.182 125.253 227.165 121.511 227.038C119.423 226.962 117.175 227.186 115.733 227.384C114.963 227.488 115.742 227.865 115.822 228.118L108.939 226.958C107.265 226.642 106.431 226.276 105.196 225.971C103.403 226.339 101.646 226.811 99.982 227.434C99.107 227.806 98.269 228.24 97.475 228.706C97.085 228.769 96.687 228.821 96.293 228.898C97.54 228.318 98.843 227.788 100.211 227.425C97.445 227.094 93.957 228.087 91.211 230.375C88.373 232.562 86.363 235.735 84.793 238.703L85.797 238.856C85.532 239.271 85.32 239.724 85.107 240.175C85.012 239.646 84.891 239.093 84.845 238.57C81.565 244.68 79.975 251.585 77.335 258.105H77.336ZM53.062 275.576C55.96 275.402 58.86 275.026 61.646 274.181C64.422 273.324 67.057 271.938 69.248 270.011C66.863 272.281 63.858 273.87 60.688 274.841C57.508 275.822 54.183 276.238 50.875 276.471C49.866 276.545 48.781 276.555 47.747 276.548C44.125 276.551 40.525 276.444 36.929 276.616C40.881 276.092 44.892 275.886 48.324 275.576C50.442 275.621 51.727 275.668 53.062 275.576ZM202.33 168.83C200.523 169.854 198.579 170.617 196.558 171.096C194.508 171.54 192.419 171.781 190.322 171.816C186.664 171.913 182.984 171.54 179.316 171.394C177.11 171.323 174.889 171.249 172.696 171.484C174.694 171.082 176.533 170.792 178.869 170.784C180.649 170.807 182.514 170.914 184.565 171.031C186.618 171.137 188.872 171.281 191.415 171.152C193.144 171.166 194.87 171.029 196.575 170.742C198.574 170.379 200.511 169.735 202.33 168.83ZM20.942 281.53C17.782 283.703 15.119 286.295 12.458 289.24C11.808 289.98 10.21 291.105 9.11299 292.154C11.053 289.449 13.148 286.836 16.026 284.118C16.977 283.478 17.869 283.043 18.663 282.621C19.45 282.189 20.176 281.821 20.942 281.53ZM242.226 130.27C241.664 130.503 241.04 130.654 240.512 130.971C239.972 131.259 239.432 131.548 238.895 131.833C237.825 132.389 236.888 133.085 235.987 133.653C232.818 135.777 230.067 138.427 227.517 141.575C228.171 140.504 228.86 139.455 229.584 138.43C231.522 136.288 233.501 134.492 235.601 133.143C236.664 132.49 237.696 131.859 238.827 131.437L240.491 130.773C241.034 130.537 241.654 130.445 242.226 130.27ZM156.05 192.47C155.56 195.804 155.362 199.104 154.722 202.782C154.413 204.556 153.456 206.882 152.655 208.952C153.385 205.819 153.857 202.732 154.225 200.308C154.956 197.039 155.461 194.728 156.05 192.469V192.47ZM158.633 194.198C159.529 189.661 160.678 185.433 162.673 182.404C163.192 181.652 163.901 181.04 164.583 180.526C163.751 181.436 163.033 182.501 162.419 183.679C161.812 184.863 161.329 186.176 160.913 187.451C159.815 190.051 159.218 192.115 158.633 194.198ZM238.153 129.413C237.63 129.702 237.105 130.023 236.63 130.403L235.218 131.407C231.602 133.764 228.585 137.001 225.938 140.561C227.302 138.523 228.722 136.512 231.058 134.073C232.822 132.453 235.316 130.563 238.153 129.413ZM140.291 226.971C137.787 228.472 134.959 229.526 132.268 229.947C129.248 230.417 126.43 230.196 123.671 229.985C126.183 229.925 128.748 229.758 131.478 229.258C134.679 228.966 137.575 228.257 140.291 226.971ZM43.421 280.911C41.705 281.027 40.011 281.243 38.413 281.318C35.691 281.428 33.123 281.571 30.717 282.07C32.487 281.503 34.447 281.192 36.889 280.851C39.0668 280.811 41.2453 280.831 43.422 280.911H43.421ZM103.323 232.551C102.613 232.704 101.825 233.051 101.353 233.105C99.621 233.329 98.07 233.719 96.663 234.317C96.3081 234.456 95.9633 234.62 95.631 234.807C95.278 234.958 94.978 235.197 94.663 235.414L93.699 236.055C93.374 236.273 93.114 236.592 92.809 236.852C93.083 236.562 93.31 236.202 93.622 235.942C93.932 235.679 94.252 235.407 94.593 235.113C95.245 234.475 96.123 233.97 97.261 233.383C98.782 232.911 100.918 232.538 103.323 232.552V232.551ZM168.566 175.425C169.06 175.221 169.628 175.224 170.148 175.169C170.664 175.109 171.215 175.149 171.761 175.149C170.839 175.289 170.026 175.595 169.188 175.834C168.414 176.184 167.602 176.444 166.881 176.878C166.663 176.988 166.44 177.086 166.211 177.171L165.371 177.592C164.707 177.907 163.887 178.407 162.779 179.315C163.973 177.945 165.091 177.183 166.011 176.581C166.496 176.319 166.925 176.088 167.324 175.871C167.753 175.704 168.162 175.566 168.566 175.425ZM157.878 199.257C157.6 201.098 157.372 203.017 156.954 204.924C156.547 206.797 155.952 208.653 155.299 210.557C155.809 208.535 156.206 206.545 156.567 204.386C157.013 202.641 157.447 200.948 157.878 199.256V199.257ZM1.52799 304.365C0.334992 306.367 -0.732009 308.359 -2.08801 310.428C-2.76901 311.473 -3.96301 312.643 -4.92401 313.753C-4.14401 312.378 -3.36101 311.003 -2.44901 309.397C-0.983009 307.54 0.270992 305.953 1.52799 304.365ZM329.974 78.918C332.579 79.533 334.88 80.308 337.475 80.938C335.994 80.765 334.464 80.58 333.198 80.314L329.038 79.371C327.533 79.046 325.814 78.681 323.661 78.441C325.381 78.452 326.708 78.521 327.731 78.618C328.742 78.69 329.457 78.793 329.974 78.918ZM116.985 229.933C115.662 229.948 114.294 230.061 113.087 229.963C111.763 229.863 110.581 229.563 109.352 229.391C110.57 229.311 111.809 229.268 113.461 229.225L116.985 229.933ZM174.27 177.079C172.706 177.149 171.239 177.219 169.918 177.506C170.301 177.373 170.674 177.224 171.057 177.074C171.466 176.959 171.9 176.865 172.357 176.786C174.027 176.569 175.878 176.546 177.869 176.662L178.083 176.916C176.749 176.924 175.477 177.039 174.27 177.079ZM167.839 176.855C168.345 176.695 168.862 176.717 169.354 176.65C167.992 177.162 166.748 177.735 165.604 178.56C165.249 178.858 164.735 178.982 163.63 179.8C165.297 178.085 166.594 177.433 167.839 176.855ZM301.909 90.5C302.457 89.028 303.038 87.473 303.787 86.176C304.454 84.985 305.285 84.093 306.11 83.144C305.159 84.506 304.342 85.955 303.328 88.103C302.953 88.704 302.408 89.591 301.909 90.5ZM92.254 233.486C94.143 231.726 96.484 230.533 99.111 229.826C100.011 229.574 101.046 229.519 102.04 229.449C100.746 229.693 99.524 230.051 99.267 230.149C97.597 230.535 96.277 231.022 95.167 231.593C94.588 231.842 94.108 232.188 93.602 232.463C93.142 232.81 92.698 233.147 92.254 233.486ZM152.054 218.731C151.594 219.725 151.185 220.801 150.514 221.701C149.378 223.371 147.89 224.834 146.324 226.164C147.444 225.083 148.482 223.917 149.642 222.266C150.527 221.145 151.333 219.964 152.054 218.731ZM318.478 75.113C319.574 74.823 320.696 74.814 321.816 74.673C322.932 74.68 324.07 74.6 325.195 74.725C326.018 74.79 326.939 75.025 327.795 75.246C326.002 75.098 324.2 75.072 322.403 75.168C321.661 75.05 320.987 75.098 320.342 75.061L319.395 75.037C319.087 75.063 318.782 75.089 318.478 75.113ZM82.208 246.783C82.528 245.946 82.96 245.256 83.368 244.523L82.036 248.595C81.728 249.525 81.333 250.44 80.102 253.668C81.297 249.697 81.681 248.183 82.208 246.783ZM77.242 267.865C77.512 267.465 77.804 267.075 78.056 266.679L78.758 265.484C79.215 264.689 79.727 263.897 80.093 263.094C79.968 263.491 79.921 263.889 79.697 264.288C78.677 266.138 77.835 268.125 74.884 271.506C76.567 269.314 76.773 268.471 77.242 267.865ZM87.406 243.131C87.671 242.617 87.959 242.182 88.233 241.714C87.826 242.632 87.421 243.538 87.051 244.532C86.904 244.898 86.661 245.227 86.233 245.982C86.752 244.716 87.053 243.872 87.406 243.132V243.131ZM20.453 283.331C20.367 283.248 21.403 282.571 21.943 282.164C22.626 281.948 23.491 281.581 23.879 281.62C23.956 281.629 23.722 281.758 23.37 282.017C23.027 282.286 22.554 282.654 22.084 283.023C21.332 283.167 20.575 283.414 20.454 283.331H20.453ZM-0.573009 305.221C-0.0630095 304.549 0.603991 303.841 0.807991 303.762C0.932991 303.714 0.325994 304.942 0.0319939 305.354C-0.449006 306.014 -0.948006 306.468 -1.68401 307.28C-1.22901 306.422 -0.85901 305.596 -0.573009 305.221ZM110.05 232.321C110.805 232.417 111.2 232.593 111.766 232.751C110.924 232.745 110.033 232.781 109.298 232.741C108.688 232.703 108.228 232.541 107.435 232.404C108.563 232.331 109.552 232.267 110.05 232.321ZM212.204 164.862C211.265 165.951 210.261 166.982 209.196 167.949C209.464 167.626 209.67 167.209 209.943 166.96C211.019 165.957 212.048 164.904 213.024 163.804C212.702 164.222 212.47 164.544 212.204 164.862ZM162.164 178.544C162.714 178.038 163.274 177.584 163.892 177.199C163.284 177.675 162.777 178.259 162.224 178.795C161.98 179.077 161.724 179.347 161.387 179.687C161.088 180.067 160.677 180.487 160.221 181.161C161.101 179.727 161.635 179.123 162.164 178.544ZM57.416 278.276C56.747 278.536 56.088 278.772 55.333 279.024C55.303 279.049 53.93 279.086 53.968 279.047C54.211 278.857 54.653 278.672 55.071 278.429L57.416 278.276ZM219.74 154.66C220.147 154.099 220.428 153.916 220.763 153.57C220.48 154.11 220.184 154.754 219.906 155.163C219.483 155.796 219.08 156.268 218.196 157.387C219.026 155.948 219.46 155.041 219.74 154.66ZM126.64 231.869C125.623 231.924 124.603 231.996 123.616 231.966C122.71 231.941 121.826 231.824 120.956 231.729C121.862 231.723 122.768 231.704 123.673 231.672C124.775 231.772 125.706 231.822 126.64 231.869ZM149.085 217.671C149.405 217.131 149.765 216.801 149.992 216.628C150.028 216.587 149.592 217.788 149.29 218.205C148.83 218.939 148.364 219.52 147.44 220.572C148.313 219.217 148.682 218.292 149.085 217.671ZM202.635 175.353C201.985 175.685 201.332 175.945 200.608 176.219C200.106 176.425 199.463 176.489 198.887 176.619L200.221 176.149L201.524 175.569C202.006 175.491 202.326 175.437 202.635 175.353ZM73.563 151.774C73.091 152.099 72.655 152.313 72.178 152.591C72.385 152.138 72.498 151.63 72.832 151.196C74.052 149.429 75.67 147.868 77.555 146.613C76.627 146.989 75.683 147.388 74.795 147.909C75.545 147.273 76.443 146.759 77.18 146.203C78.071 145.597 78.84 144.925 79.777 144.4C78.718 144.533 77.686 144.728 76.645 145.133C74.973 145.848 73.389 146.878 71.977 148.1C70.403 149.51 69.008 151.176 67.932 153.084C66.834 154.974 66.162 157.181 65.945 159.392C65.877 160.047 65.965 160.688 66.173 161.297C66.365 161.907 66.566 162.493 66.818 163.055C66.593 163.568 66.348 164.112 66.16 164.665C65.985 165.215 65.82 165.785 65.667 166.377L65.677 166.292C67.045 172.035 70.701 176.98 76.069 179.935C78.551 181.293 81.54 182.101 84.512 182.158C87.432 182.225 90.304 181.645 92.907 180.687C97.21 179.097 101.177 176.892 104.032 173.29C105.431 171.529 106.59 169.59 107.478 167.524C108.371 165.419 109.011 163.194 109.317 160.965C109.974 156.489 109.498 152.005 108.213 147.889C106.003 141.018 101.575 134.914 95.22 130.889C92.06 128.893 88.362 127.499 84.602 126.954C80.844 126.397 77.075 126.624 73.53 127.459C66.445 129.144 60.08 133.136 55.57 139.077C53.331 142.035 51.605 145.543 50.703 149.27C49.792 152.988 49.693 156.804 50.243 160.427C51.459 168.183 55.353 175.253 61.533 180.334C62.284 180.988 63.116 181.559 63.966 182.111C64.79 182.694 65.694 183.173 66.607 183.641C67.497 184.141 68.467 184.512 69.434 184.884C70.351 185.28 71.477 185.566 72.568 185.839C76.947 186.831 81.208 186.497 85.238 185.374C88.094 184.537 90.988 183.13 93.478 181.029C95.966 178.958 98.004 176.08 98.893 173.073C99.581 170.729 99.343 168.757 98.778 167.54C98.171 166.296 97.357 165.718 96.497 165.614C95.635 165.506 94.713 165.859 93.806 166.409C93.348 166.684 92.916 167.009 92.471 167.355C91.976 167.695 91.493 168.052 91.055 168.421C89.875 169.216 88.595 169.538 87.604 170.251C86.109 171.414 84.174 172.399 82.072 172.953C79.971 173.483 77.667 173.433 75.925 172.652C75.328 172.351 74.843 172.139 74.199 171.734C73.574 171.419 72.988 170.996 72.392 170.601C71.248 169.721 70.093 168.806 69.204 167.614C67.452 165.476 66.34 162.786 65.814 160.183C65.352 157.548 65.446 154.993 66.127 152.825C66.65 151.037 67.44 149.255 68.707 147.54C69.987 145.854 71.711 144.298 73.723 143.22C74.956 142.524 76.375 142.254 77.695 141.946C81.823 141.012 85.744 141.755 89.148 144.369C92.55 146.934 95.056 151.263 95.611 155.619C95.868 157.282 95.726 158.943 95.351 160.491C95.015 162.04 94.381 163.506 93.573 164.938C91.973 167.729 89.457 170.162 86.575 171.111C85.858 171.384 85.118 171.5 84.365 171.591C83.995 171.621 83.645 171.596 83.273 171.619C82.908 171.563 82.533 171.544 82.159 171.476C80.66 171.179 79.13 170.432 77.82 169.334C76.143 167.974 74.879 166.04 74.208 164.014C73.878 162.992 73.748 161.947 73.727 160.912C73.795 159.89 73.917 158.863 74.32 157.881C75.79 153.899 80.222 150.68 84.673 150.323C85.784 150.267 86.917 149.899 88.119 149.976C87.484 149.019 86.715 148.041 85.521 147.308C85.346 147.204 85.009 147.161 84.625 147.136C84.243 147.122 83.819 147.182 83.463 147.176C84.307 147.022 85.212 147.094 86 146.978C86.5487 146.945 87.0963 146.896 87.642 146.83L89.309 146.826C87.282 145.505 84.749 144.693 82.047 144.566C81.943 144.563 81.467 145.06 81.043 145.259L79.149 146.162L77.959 147.501C77.589 147.978 77.204 148.428 76.779 148.871C75.971 149.828 74.954 150.656 73.563 151.774ZM101.709 150.19C102.064 151.057 102.356 152.073 102.479 153.073C102.509 153.26 102.359 153.47 102.289 153.666C102.022 152.796 101.737 151.95 101.363 151.127C101.163 150.661 101.025 150.159 100.783 149.702C100.523 149.299 100.221 148.933 100.022 148.492C99.622 147.702 99.186 146.928 98.739 146.169C98.229 145.445 97.804 144.672 97.219 144.009C97.309 143.926 97.464 143.759 97.473 143.769C98.138 144.516 98.628 145.389 99.203 146.212C99.666 147.096 100.216 147.954 100.573 148.9C100.687 149.168 100.71 149.492 100.773 149.787C101.095 149.903 101.576 149.855 101.709 150.19ZM85.124 176.527C84.581 176.515 84.045 176.471 83.521 176.338C84.088 176.231 84.621 175.826 85.149 175.828C88.243 175.696 91.255 174.513 93.741 172.642C96.261 170.804 98.266 168.294 99.658 165.505C100.129 164.469 100.568 163.411 100.827 162.301C100.953 161.746 101.104 161.196 101.214 160.639L101.441 158.946C101.517 158.517 101.641 158.093 101.753 157.659C101.806 158.099 101.98 158.554 101.91 159.001L101.694 160.724C101.582 161.292 101.424 161.852 101.294 162.416C101.026 163.545 100.584 164.619 100.155 165.691C99.877 166.264 99.931 167.075 99.942 167.615C99.952 167.905 100.362 167.848 100.592 167.945C99.974 168.485 99.324 169.107 98.697 169.407C98.165 169.687 97.693 169.645 97.192 169.711C97.072 170.322 96.919 170.938 96.718 171.541C96.65 171.898 96.592 172.279 96.495 172.634L96.054 172.755C96.33 172.359 96.568 171.935 96.796 171.513C96.196 171.54 95.71 171.711 95.254 171.953C94.814 172.211 94.421 172.558 94.014 172.923C93.238 173.688 92.398 174.554 91.422 175.01L91.942 175.803C91.788 175.877 91.64 175.962 91.483 176.027C91.484 175.679 91.469 175.317 91.453 174.969C89.49 175.927 87.317 176.506 85.123 176.527H85.124ZM76.259 172.864C77.559 174.031 79.089 174.984 80.768 175.578C78.803 175.142 76.909 174.253 75.242 173.018C74.995 172.822 74.762 172.572 74.539 172.338C73.773 171.502 73.123 170.579 72.545 169.625C73.469 170.488 74.435 171.247 75.342 171.771C75.731 172.271 75.943 172.615 76.259 172.864ZM88.223 136.367L89.99 137.067C90.576 137.317 91.122 137.65 91.694 137.946C92.202 138.19 92.634 138.549 93.102 138.859C93.571 139.173 94.028 139.505 94.443 139.887C94.951 140.337 95.498 140.759 95.948 141.272C95.38 140.936 94.722 140.812 94.152 140.408C93.722 140.091 93.287 139.751 92.772 139.414C92.266 139.066 91.743 138.644 91.054 138.302C90.697 138.037 90.294 137.668 89.799 137.352L88.223 136.367ZM70.057 164.927C69.776 164.365 69.474 163.8 69.279 163.186C69.172 162.881 69.056 162.569 68.966 162.249C68.898 161.925 68.836 161.592 68.783 161.249C68.707 160.905 69.112 160.263 69.351 159.795C69.426 160.355 69.541 160.899 69.726 161.449L69.983 162.277L70.348 163.115C70.148 163.842 70.128 164.375 70.058 164.926L70.057 164.927ZM69.685 133.34C70.497 132.81 71.433 132.27 72.27 132.031C73.808 131.713 75.283 131.7 76.765 131.763C76.286 131.938 75.807 132.113 75.469 132.235C74.4649 132.325 73.4653 132.459 72.473 132.637C71.537 132.872 70.579 133.017 69.685 133.34ZM103.185 148.5C103.521 149.006 103.847 149.513 104.115 150.057C104.391 150.599 104.69 151.154 104.861 151.774C105.017 152.38 104.724 153.285 104.623 154.022C104.307 153.003 104.065 151.982 103.737 151.216C103.545 150.104 103.423 149.284 103.185 148.501V148.5ZM106.062 147.946C105.394 146.236 104.588 144.583 103.652 143.003C103.411 142.605 103.322 142.094 103.157 141.629L104.36 143.32C104.72 143.893 105.047 144.465 105.362 144.998C105.761 146.212 105.862 147.105 106.062 147.946ZM71.732 134.976C72.066 134.743 72.4 134.398 72.756 134.29C74.1644 133.914 75.6083 133.687 77.064 133.613C76.29 133.815 75.511 133.98 74.487 134.383C73.707 134.476 72.721 134.708 71.731 134.977L71.732 134.976ZM104.725 160.996C104.719 161.886 104.675 162.826 104.455 163.674C104.145 164.606 103.595 165.42 103.058 166.204C103.313 165.387 103.466 164.534 103.632 163.657C104.031 162.708 104.445 161.869 104.725 160.995V160.996ZM70.35 174.16C69.81 173.724 69.262 173.26 68.869 172.704C68.524 172.243 68.261 171.726 68.013 171.209C67.7535 170.698 67.5261 170.171 67.332 169.632C67.766 170.39 68.329 171.056 68.961 171.881C69.385 172.599 69.794 173.43 70.35 174.16ZM101.48 174.596C101.329 174.921 101.165 175.366 100.973 175.531C99.567 176.733 98.004 177.697 96.375 178.519C97.095 177.959 97.796 177.375 98.783 176.37C99.561 175.943 100.526 175.297 101.48 174.596ZM99.47 140.561C99.19 140.201 99.102 139.721 98.918 139.287C99.508 139.782 100.118 140.255 100.593 140.887C100.837 141.229 101.038 141.701 101.453 142.928C100.478 141.645 99.862 141.172 99.47 140.561ZM106.866 149.783C107.126 150.45 107.438 151.121 107.535 151.835C107.641 152.536 107.635 153.238 107.617 153.942C107.467 153.23 107.241 152.54 107.025 151.768C107.026 151.082 106.939 150.438 106.865 149.783H106.866ZM69.466 154.699C69.666 153.869 69.898 153.059 70.352 152.283C70.565 151.874 71.202 151.628 71.63 151.324C71.402 151.853 71.14 152.336 70.954 152.975L70.141 153.828L69.466 154.699ZM57.343 167.123L57.982 169.792C57.702 169.385 57.34 168.974 57.157 168.562C56.944 168.124 56.837 167.646 56.67 167.109C56.523 166.561 56.31 165.95 56.169 165.12C56.766 166.294 57.272 166.747 57.343 167.123ZM102.311 168.42C102.186 168.883 102.091 169.405 101.846 169.776C101.581 170.19 101.123 170.415 100.746 170.704C100.916 170.273 101.094 169.85 101.266 169.267C101.659 168.953 102.002 168.7 102.311 168.42ZM99.841 137.08C100.316 137.622 100.706 138.236 101.123 138.817C100.776 138.555 100.401 138.353 100.092 138.035C99.562 137.458 99.017 136.852 98.422 136.301L98.526 136.058C98.965 136.392 99.476 136.668 99.841 137.08ZM100.667 140.305C100.52 140.101 100.547 139.79 100.472 139.538C100.942 140.068 101.402 140.608 101.832 141.18C101.971 141.373 102.029 141.647 102.199 142.331C101.542 141.353 101.036 140.87 100.667 140.305ZM58.105 155.435C58.14 155.904 58.28 156.384 58.295 156.821C58.295 157.218 58.106 157.581 58 157.969L57.78 156.264C57.848 156.049 57.984 155.739 58.105 155.435ZM95.529 175.651C96.374 174.955 97.132 174.187 97.884 173.414C98.134 173.141 98.505 172.946 98.823 172.71L98.149 173.645C97.3268 174.378 96.451 175.048 95.529 175.651ZM107.8 156.866C107.884 157.212 108.043 157.572 108.03 157.913C107.997 158.534 107.896 159.15 107.73 159.75C107.743 159.28 107.705 158.813 107.637 158.196L107.8 156.866ZM59.01 162.343C59.29 162.951 59.62 163.527 59.87 164.142C59.952 164.37 59.937 164.676 59.968 164.949C59.637 164.537 59.38 164.089 59.057 163.564C59.037 163.092 59.009 162.719 59.01 162.343ZM89.146 176.727C89.435 176.649 89.746 176.751 90.056 176.769C89.608 176.956 89.164 177.169 88.696 177.319C88.369 177.383 88.016 177.415 86.858 177.455C88.198 177.094 88.67 176.867 89.146 176.727ZM81.88 180.667L83.908 181.04C83.752 181.093 83.595 181.17 83.428 181.16C82.638 181.091 81.826 181.064 80.328 180.68C81.303 180.679 81.613 180.623 81.88 180.667ZM92.228 179.349C92.471 179.265 92.712 179.242 92.956 179.189C92.553 179.391 92.154 179.606 91.736 179.779C91.576 179.841 91.388 179.829 90.994 179.828C91.557 179.645 91.884 179.458 92.228 179.349ZM68.677 164.79C68.756 164.761 68.951 165.174 69.092 165.38C69.002 165.664 68.995 166.019 68.885 166.184C68.845 166.247 68.555 165.878 68.275 165.488C68.442 165.156 68.526 164.845 68.677 164.79ZM70.86 154.687C70.7 154.913 70.43 155.134 70.293 155.135C70.209 155.138 70.23 154.632 70.321 154.484C70.463 154.242 70.701 154.119 71.029 153.899C70.939 154.221 70.943 154.557 70.86 154.687ZM103.292 172.135C103.524 171.908 103.769 171.862 103.999 171.726C103.834 172.046 103.675 172.4 103.467 172.654C103.293 172.862 103.054 172.941 102.734 173.142C102.981 172.69 103.134 172.288 103.292 172.135ZM86.262 132.318C86.71 132.424 87.172 132.498 87.604 132.668C87.457 132.694 87.284 132.779 87.174 132.738C86.734 132.61 86.309 132.445 85.824 132.276C85.996 132.292 86.13 132.291 86.262 132.318ZM100.594 143.393C100.447 143.134 100.371 142.84 100.226 142.581C100.445 142.811 100.64 143.059 100.806 143.327C100.961 143.586 101.065 143.878 101.324 144.458C100.95 143.917 100.745 143.666 100.594 143.393ZM75.418 176.185C75.1266 176.191 74.8351 176.176 74.546 176.139C74.536 176.137 74.212 175.774 74.237 175.764C74.412 175.686 74.637 175.653 74.864 175.598C75.144 175.899 75.268 176.058 75.418 176.185ZM82.112 131.313C81.879 131.246 81.782 131.091 81.622 130.974C81.838 130.95 82.092 130.886 82.262 130.914C82.524 130.951 82.729 131.104 83.195 131.311C82.623 131.297 82.27 131.348 82.112 131.313ZM105.192 165.969C105.102 166.317 105.015 166.671 104.874 166.997C104.738 167.295 104.541 167.559 104.357 167.827L104.61 166.864C104.83 166.527 105.023 166.254 105.193 165.969H105.192ZM104.679 157.042C104.703 156.846 104.885 156.699 105.006 156.616C105.032 156.598 105.146 156.997 105.129 157.154C105.097 157.423 104.992 157.651 104.861 158.072C104.769 157.578 104.652 157.271 104.679 157.042ZM91.421 131.212C91.641 131.272 91.864 131.312 92.086 131.407C92.24 131.472 92.393 131.611 92.544 131.717L91.647 131.538L91.421 131.212ZM185.917 101.214C186.255 101.264 186.552 101.514 186.885 101.634C186.619 101.826 186.361 102.018 186.035 102.134C184.7 102.587 183.288 102.765 181.883 102.658C182.482 102.955 183.107 103.129 183.75 103.321C183.118 103.303 182.456 103.246 181.841 103.206C181.113 103.217 180.401 103.259 179.633 103.18C180.226 103.633 180.818 104.122 181.537 104.365C182.709 104.812 183.957 104.965 185.175 104.986C187.921 105.027 190.671 104.308 193.046 102.706C193.758 102.259 194.021 101.259 194.382 100.538C195.222 100.48 196.186 100.386 197.076 100.112L197.019 100.142C197.353 99.719 197.679 99.285 197.996 98.844C199.881 95.916 200.702 92.424 200.499 89.162C200.299 85.655 198.993 82.486 197.387 79.606C196.727 78.393 196.052 77.184 195.26 75.991C194.44 74.841 193.451 73.662 192.235 72.827C189.915 71.127 187.236 69.993 184.526 69.379C181.809 68.755 179.046 68.619 176.351 68.878C171.843 69.359 167.448 70.912 163.621 73.688C159.82 76.408 156.615 80.62 155.188 85.161C153.65 89.688 153.571 94.389 154.498 98.809C154.966 101.029 155.768 103.172 156.774 105.237C157.854 107.277 159.165 109.232 160.807 110.977C162.582 112.827 164.673 114.477 166.997 115.704C169.284 116.876 171.733 117.7 174.263 118.15C176.745 118.544 179.237 118.59 181.684 118.316C184.124 118.006 186.511 117.361 188.795 116.407C192.033 115.057 195.273 112.505 196.775 109.595C197.379 108.493 197.499 107.415 197.294 106.513C197.098 105.62 196.594 104.917 195.909 104.393C194.524 103.345 192.451 102.98 190.589 103.013C189.508 103.025 188.309 102.747 187.541 103.06C186.338 103.544 185.245 104.158 183.995 104.516C182.772 104.875 181.476 105.131 180.222 104.794C178.548 104.391 176.904 104.167 175.546 103.532C172.977 102.287 171.886 100.262 170.833 97.928C170.031 96.038 168.957 93.808 169.054 91.517C169.08 90.819 169.409 90.206 169.565 89.584C169.84 88.6633 170.255 87.7905 170.796 86.996C171.366 86.198 172.146 85.472 173.046 84.824C173.941 84.163 175.025 83.672 176.151 83.304C177.288 82.9216 178.478 82.7221 179.677 82.713C181.523 82.656 183.184 83.29 184.699 83.907C186.187 84.434 187.649 85.472 188.837 86.912C189.992 88.339 190.796 90.158 190.763 91.881C190.762 92.7423 190.581 93.5939 190.231 94.381C189.645 95.633 188.192 96.78 186.335 97.157C184.532 97.565 182.549 97.262 181.465 96.359C181.102 96.102 180.5 96.012 179.999 95.633C179.759 95.971 179.526 96.359 179.328 96.799C179.149 97.226 179.056 97.67 179.012 98.187C178.963 98.515 179.479 98.837 179.741 99.175C179.343 98.861 178.954 98.5 178.588 98.196C177.99 97.8217 177.425 97.3982 176.898 96.93C176.903 98.511 177.476 100.309 178.668 101.827C178.716 101.885 179.251 101.757 179.565 101.823L180.935 102.127C181.355 102.044 181.767 101.855 182.157 101.721L183.31 101.329C184.08 101.107 184.85 101.032 185.917 101.214ZM177.174 75.702C177.718 75.547 178.349 75.547 178.944 75.526C179.058 75.531 179.164 75.72 179.272 75.826C178.737 75.922 178.216 76.124 177.698 76.253C177.404 76.326 177.101 76.385 176.81 76.483C176.55 76.625 176.31 76.816 176.033 76.891C175.03 77.189 174.034 77.508 173.099 77.952C173.05 77.842 172.951 77.64 172.959 77.634C173.492 77.385 174.031 77.138 174.599 76.967C175.158 76.766 175.729 76.585 176.316 76.472C176.484 76.434 176.678 76.498 176.859 76.514C176.954 76.233 176.967 75.78 177.174 75.702ZM194.092 85.84C194.192 86.144 194.219 86.47 194.277 86.78C193.984 86.534 193.543 86.368 193.435 86.077C192.012 82.736 189.435 79.825 186.071 78.344C184.87 77.749 183.56 77.439 182.261 77.135C182.009 77.098 181.785 76.908 181.541 76.787C181.809 76.745 182.089 76.641 182.354 76.673C183.694 76.935 185.005 77.343 186.267 77.851C186.617 77.989 187.167 77.801 187.557 77.657C187.758 77.591 187.779 77.233 187.879 77.004C188.161 77.469 188.504 77.922 188.647 78.372C188.773 78.768 188.687 79.164 188.659 79.574C189.086 79.53 189.529 79.498 189.989 79.48L190.805 79.38L190.851 79.693L189.976 79.426C189.823 80.419 190.229 80.823 190.742 81.224C191.282 81.586 191.95 81.925 192.314 82.447L193.035 81.834C193.098 81.914 193.151 81.999 193.205 82.084L192.28 82.438C193.01 83.501 193.63 84.639 194.092 85.84ZM194.496 91.565C194.633 90.5336 194.634 89.4888 194.501 88.457C194.919 89.575 195.151 90.774 195.227 92.017C195.23 92.206 195.182 92.404 195.141 92.593C195.081 92.925 194.97 93.247 194.856 93.563C194.746 93.881 194.644 94.198 194.485 94.495C194.5 94.114 194.435 93.725 194.393 93.366C194.359 93.0267 194.296 92.6911 194.203 92.363C194.336 92.015 194.483 91.8 194.496 91.565ZM167.046 81.392C167.538 80.836 168.021 80.245 168.609 79.764C169.09 79.304 169.639 78.928 170.196 78.556C170.523 78.314 170.876 78.119 171.236 77.934C170.99 78.296 170.838 78.72 170.54 79.026C170.073 79.468 169.48 79.789 168.817 80.406C168.321 80.605 167.698 81.001 167.047 81.392H167.046ZM193.307 97.472C193.058 98.212 192.768 99.02 192.212 99.682C192.08 99.862 191.55 99.821 191.2 99.816C191.406 99.529 191.572 99.204 191.726 98.867C191.878 98.532 192.05 98.218 192.147 97.821C192.602 97.701 192.98 97.616 193.307 97.472ZM158.543 89.613C158.55 89.016 158.444 88.316 158.643 87.807C159.041 86.907 159.651 86.162 160.243 85.438C160.2 85.726 160.177 86.0167 160.174 86.308C159.482 87.428 158.998 88.501 158.544 89.613H158.543ZM176.283 73.865C176.953 73.493 177.633 73.125 178.413 72.983C178.79 72.903 179.303 73.36 179.73 73.602C179.088 73.682 178.461 73.839 177.97 73.969C177.411 73.8975 176.847 73.8627 176.283 73.865ZM176.192 70.963L174.516 71.313L172.872 71.776C172.592 71.846 172.252 71.747 171.941 71.755C172.729 71.371 173.557 71.095 174.281 70.808C175.096 70.847 175.648 70.914 176.192 70.963ZM160.963 89.283C160.912 89.029 160.764 88.729 160.832 88.516C161.117 87.676 161.542 86.891 161.982 86.142C161.825 86.596 161.786 87.088 161.655 87.73C161.413 88.141 161.197 88.708 160.963 89.283ZM183.934 73.909C184.48 73.909 185.083 73.813 185.577 74.027C186.127 74.259 186.586 74.65 187.035 75.047C186.525 74.922 185.989 74.904 185.448 74.833C184.967 74.4873 184.461 74.1784 183.934 73.909ZM199.212 94.281C199.199 94.741 199.289 95.244 199.132 95.677C198.859 96.4013 198.497 97.0889 198.054 97.724C198.24 97.168 198.356 96.597 198.466 95.904C198.758 95.411 198.98 94.854 199.212 94.281ZM192.959 74.754C193.197 74.811 193.549 74.824 193.662 74.944C194.455 75.856 195.105 76.821 195.678 77.804C195.234 77.443 194.832 77.056 194.101 76.536C193.811 76.046 193.437 75.376 192.959 74.754ZM170.975 74.631C170.715 74.731 170.379 74.601 170.07 74.581C170.454 74.297 170.812 73.94 171.263 73.762C171.501 73.659 171.853 73.739 172.663 73.75C171.776 74.218 171.395 74.486 170.975 74.631ZM177.398 70.607C177.834 70.512 178.278 70.358 178.72 70.348C179.155 70.339 179.586 70.525 180.01 70.624C179.562 70.694 179.114 70.726 178.627 70.843L177.398 70.607ZM189.064 102.31C188.634 102.64 188.209 103.002 187.673 103.154C187.401 103.23 186.999 103.032 186.666 102.897C186.989 102.736 187.292 102.494 187.636 102.261C188.156 102.328 188.606 102.327 189.064 102.31ZM168.127 110.696C168.549 111.129 168.856 111.666 169.258 112.121C168.952 112.041 168.615 111.943 168.382 111.771C167.78 111.29 167.235 110.741 166.757 110.137C167.517 110.497 167.957 110.523 168.127 110.696ZM188.448 75.364C188.761 75.376 189.12 75.364 189.351 75.517C189.603 75.69 189.718 76.027 189.883 76.289C189.589 76.243 189.295 76.199 188.907 76.14C188.742 75.84 188.605 75.585 188.448 75.364ZM168.614 72.884C169.026 72.702 169.479 72.62 169.91 72.5C169.703 72.691 169.537 72.929 169.295 73.062C168.869 73.306 168.383 73.452 167.947 73.708L167.783 73.518C168.046 73.283 168.297 73.016 168.614 72.884ZM170.88 73.473C170.73 73.515 170.53 73.392 170.353 73.355C170.736 73.136 171.136 72.9464 171.548 72.788C171.685 72.736 171.88 72.814 172.328 72.869C171.654 73.153 171.278 73.351 170.88 73.473ZM165.387 103.641C165.602 103.824 165.87 103.975 166.004 104.193C166.136 104.384 166.106 104.671 166.153 104.923C165.946 104.716 165.697 104.543 165.427 104.217L165.387 103.641ZM193.167 79.282C192.676 78.834 192.124 78.458 191.604 78.046C191.431 77.899 191.319 77.648 191.164 77.452C191.47 77.578 191.761 77.73 191.822 77.767C192.432 78.388 192.816 78.823 193.168 79.282H193.167ZM181.806 70.744C182.026 70.682 182.266 70.545 182.474 70.579C182.853 70.644 183.208 70.791 183.566 70.933C183.275 70.929 182.984 70.961 182.599 70.983L181.806 70.744ZM168.122 106.667C168.482 106.837 168.85 106.978 169.179 107.181C169.299 107.254 169.338 107.483 169.419 107.641L168.455 107.358L168.122 106.667ZM193.842 83.381C193.767 83.222 193.855 82.987 193.852 82.79C194.054 82.999 194.234 83.225 194.387 83.471C194.475 83.645 194.538 83.844 194.682 84.524C194.222 83.847 193.957 83.652 193.842 83.381ZM198.744 86.04L198.542 84.88C198.624 84.945 198.746 84.992 198.781 85.081C198.958 85.491 199.068 85.936 199.296 86.799C198.948 86.321 198.776 86.192 198.744 86.04ZM196.184 80.496C196.113 80.361 196.096 80.206 196.054 80.059C196.224 80.265 196.411 80.462 196.56 80.686C196.616 80.771 196.59 80.91 196.61 81.152C196.422 80.863 196.282 80.686 196.183 80.496H196.184ZM194.154 98.513C194.094 98.471 194.198 98.189 194.206 98.007C194.409 97.962 194.637 97.857 194.814 97.879C194.884 97.888 194.83 98.198 194.818 98.557C194.528 98.567 194.29 98.607 194.155 98.513H194.154ZM188.327 101.248C188.494 101.236 188.719 101.313 188.793 101.417C188.839 101.481 188.635 101.764 188.532 101.784C188.363 101.809 188.197 101.721 187.947 101.616C188.113 101.477 188.232 101.25 188.327 101.248ZM191.274 73.733C191.131 73.578 191.121 73.379 191.052 73.197C191.267 73.281 191.521 73.335 191.686 73.464C191.823 73.569 191.854 73.762 191.969 73.996C191.657 73.881 191.37 73.837 191.274 73.733ZM163.415 80.5L163.973 79.867C163.972 79.977 164.016 80.135 163.963 80.185C163.763 80.38 163.529 80.537 163.284 80.738C163.332 80.639 163.364 80.563 163.415 80.5ZM172.908 74.7C172.733 74.748 172.546 74.735 172.362 74.75C172.532 74.658 172.695 74.542 172.878 74.482C173.051 74.418 173.247 74.429 173.638 74.409C173.261 74.544 173.088 74.645 172.908 74.7ZM197.674 90.843C197.833 90.988 197.992 91.133 198.144 91.304C198.149 91.311 198.051 91.604 198.028 91.595C197.86 91.532 197.7 91.429 197.521 91.333C197.598 91.082 197.636 90.962 197.674 90.843ZM161.593 82.4C161.467 82.495 161.305 82.47 161.158 82.498C161.2 82.368 161.218 82.195 161.292 82.118C161.405 81.994 161.558 81.935 161.869 81.785C161.705 82.098 161.681 82.338 161.593 82.4ZM187.172 73.072C187.392 73.102 187.622 73.129 187.82 73.226C188.003 73.313 188.15 73.472 188.31 73.6L187.694 73.494C187.529 73.3427 187.355 73.2018 187.172 73.072ZM181.535 73.853C181.421 73.819 181.355 73.628 181.32 73.503C181.312 73.476 181.565 73.387 181.658 73.414C181.815 73.461 181.939 73.578 182.176 73.73C181.868 73.795 181.669 73.892 181.535 73.853ZM163.392 76.583C163.471 76.459 163.532 76.323 163.636 76.216C163.709 76.141 163.838 76.104 163.941 76.052L163.68 76.591L163.392 76.583Z" fill="#FFCAFA"/>
</g>
</g>
<defs>
<clipPath id="clip0_1396_1376">
<rect width="567" height="296" fill="white"/>
</clipPath>
</defs>
</svg>
